999
Kaydara Dxf writer for FBX
  0
SECTION
  2
HEADER
  9
$ACADVER
  1
AC1008
  9
$UCSORG
 10
0.0
 20
0.0
 30
0.0
  9
$UCSXDIR
 10
1.0
 20
0.0
 30
0.0
  9
$TILEMODE
 70
   1
  9
$UCSYDIR
 10
0.0
 20
1.0
 30
0.0
  0
ENDSEC
  0
SECTION
  2
TABLES
  0
TABLE
  2
LTYPE
 70
   1
  0
LTYPE
  2
CONTINUOUS
 70
   64
  3
Solid line
 72
   65
 73
   0
 40
0.0
  0
ENDTAB
  0
TABLE
  2
LAYER
 70
   10
  0
LAYER
  2
litGr
 70
   0
 62
   254
  6
CONTINUOUS
  0
ENDTAB
  0
ENDSEC
  0
SECTION
  2
BLOCKS
  0
ENDSEC
  0
SECTION
  2
ENTITIES
  0
POLYLINE
  8
litGr
 62
   254
 66
   1
 10
0.0
 20
0.0
 30
0.0
 70
   64
 71
   144
 72
   72
  0
VERTEX
  8
litGr
 10
-0.337399
 20
-0.003346
 30
0.381289
 70
   192
  0
VERTEX
  8
litGr
 10
0.253813
 20
-0.425351
 30
0.124141
 70
   192
  0
VERTEX
  8
litGr
 10
-0.091429
 20
-0.461450
 30
0.544114
 70
   192
  0
VERTEX
  8
litGr
 10
0.007843
 20
0.032753
 30
-0.038684
 70
   192
  0
VERTEX
  8
litGr
 10
-0.057432
 20
0.281163
 30
0.246463
 70
   192
  0
VERTEX
  8
litGr
 10
-0.139398
 20
-0.282444
 30
0.208598
 70
   192
  0
VERTEX
  8
litGr
 10
-0.213091
 20
-0.001521
 30
0.488873
 70
   192
  0
VERTEX
  8
litGr
 10
0.016262
 20
0.000240
 30
-0.033811
 70
   192
  0
VERTEX
  8
litGr
 10
0.073393
 20
0.179265
 30
0.473301
 70
   192
  0
VERTEX
  8
litGr
 10
-0.334315
 20
-0.369542
 30
0.117870
 70
   192
  0
VERTEX
  8
litGr
 10
-0.282733
 20
-0.200773
 30
0.633359
 70
   192
  0
VERTEX
  8
litGr
 10
0.021810
 20
0.010496
 30
-0.042188
 70
   192
  0
VERTEX
  8
litGr
 10
-0.243443
 20
0.276600
 30
0.395030
 70
   192
  0
VERTEX
  8
litGr
 10
-0.214291
 20
-0.449189
 30
0.137881
 70
   192
  0
VERTEX
  8
litGr
 10
-0.454500
 20
-0.198600
 30
0.557854
 70
   192
  0
VERTEX
  8
litGr
 10
-0.003233
 20
0.026012
 30
-0.024943
 70
   192
  0
VERTEX
  8
litGr
 10
0.152972
 20
0.229893
 30
0.260203
 70
   192
  0
VERTEX
  8
litGr
 10
-0.342508
 20
-0.050946
 30
0.222339
 70
   192
  0
VERTEX
  8
litGr
 10
-0.165779
 20
0.179523
 30
0.502613
 70
   192
  0
VERTEX
  8
litGr
 10
-0.023756
 20
-0.000575
 30
-0.020071
 70
   192
  0
VERTEX
  8
litGr
 10
0.103641
 20
0.031145
 30
0.521141
 70
   192
  0
VERTEX
  8
litGr
 10
-0.528519
 20
0.086536
 30
0.084047
 70
   192
  0
VERTEX
  8
litGr
 10
-0.425643
 20
0.116578
 30
0.618263
 70
   192
  0
VERTEX
  8
litGr
 10
0.000765
 20
0.001103
 30
-0.013075
 70
   192
  0
VERTEX
  8
litGr
 10
0.106810
 20
0.360999
 30
0.397471
 70
   192
  0
VERTEX
  8
litGr
 10
-0.505009
 20
-0.030533
 30
0.140322
 70
   192
  0
VERTEX
  8
litGr
 10
-0.409943
 20
0.303320
 30
0.560296
 70
   192
  0
VERTEX
  8
litGr
 10
0.011744
 20
0.027146
 30
-0.022502
 70
   192
  0
VERTEX
  8
litGr
 10
0.266594
 20
-0.004782
 30
0.262645
 70
   192
  0
VERTEX
  8
litGr
 10
-0.225949
 20
0.281176
 30
0.224780
 70
   192
  0
VERTEX
  8
litGr
 10
0.062211
 20
0.244953
 30
0.505054
 70
   192
  0
VERTEX
  8
litGr
 10
-0.021566
 20
0.031441
 30
-0.017630
 70
   192
  0
VERTEX
  8
litGr
 10
-0.043836
 20
-0.002054
 30
0.536157
 70
   192
  0
VERTEX
  8
litGr
 10
-0.194692
 20
0.519350
 30
-0.010768
 70
   192
  0
VERTEX
  8
litGr
 10
-0.233495
 20
0.508720
 30
0.532605
 70
   192
  0
VERTEX
  8
litGr
 10
-0.005034
 20
0.008576
 30
-0.007216
 70
   192
  0
VERTEX
  8
litGr
 10
0.338519
 20
-0.041789
 30
0.396099
 70
   192
  0
VERTEX
  8
litGr
 10
-0.154534
 20
0.491614
 30
0.138950
 70
   192
  0
VERTEX
  8
litGr
 10
0.190836
 20
0.456760
 30
0.558924
 70
   192
  0
VERTEX
  8
litGr
 10
-0.006851
 20
-0.006934
 30
-0.023874
 70
   192
  0
VERTEX
  8
litGr
 10
0.006550
 20
-0.263427
 30
0.261273
 70
   192
  0
VERTEX
  8
litGr
 10
0.201405
 20
0.271739
 30
0.223408
 70
   192
  0
VERTEX
  8
litGr
 10
0.216437
 20
-0.018300
 30
0.503682
 70
   192
  0
VERTEX
  8
litGr
 10
-0.008482
 20
0.026612
 30
-0.019002
 70
   192
  0
VERTEX
  8
litGr
 10
-0.088942
 20
0.066288
 30
0.517854
 70
   192
  0
VERTEX
  8
litGr
 10
0.445571
 20
0.279478
 30
0.005418
 70
   192
  0
VERTEX
  8
litGr
 10
0.381606
 20
0.339818
 30
0.543135
 70
   192
  0
VERTEX
  8
litGr
 10
-0.024976
 20
0.005949
 30
-0.019863
 70
   192
  0
VERTEX
  8
litGr
 10
0.219187
 20
-0.278865
 30
0.395030
 70
   192
  0
VERTEX
  8
litGr
 10
0.258849
 20
0.446426
 30
0.137881
 70
   192
  0
VERTEX
  8
litGr
 10
0.474267
 20
0.174230
 30
0.557855
 70
   192
  0
VERTEX
  8
litGr
 10
0.003769
 20
-0.006669
 30
-0.024943
 70
   192
  0
VERTEX
  8
litGr
 10
-0.171029
 20
-0.194854
 30
0.260204
 70
   192
  0
VERTEX
  8
litGr
 10
0.348803
 20
0.037836
 30
0.222339
 70
   192
  0
VERTEX
  8
litGr
 10
0.151059
 20
-0.174874
 30
0.502613
 70
   192
  0
VERTEX
  8
litGr
 10
0.026715
 20
0.017856
 30
-0.020071
 70
   192
  0
VERTEX
  8
litGr
 10
-0.109932
 20
-0.023031
 30
0.519737
 70
   192
  0
VERTEX
  8
litGr
 10
0.520761
 20
-0.115418
 30
0.086798
 70
   192
  0
VERTEX
  8
litGr
 10
0.408790
 20
-0.157461
 30
0.618369
 70
   192
  0
VERTEX
  8
litGr
 10
0.002038
 20
0.019013
 30
-0.011834
 70
   192
  0
VERTEX
  8
litGr
 10
0.110893
 20
0.228012
 30
0.695450
 70
   192
  0
VERTEX
  8
litGr
 10
-0.500927
 20
-0.074391
 30
0.337715
 70
   192
  0
VERTEX
  8
litGr
 10
-0.405860
 20
0.126475
 30
0.835197
 70
   192
  0
VERTEX
  8
litGr
 10
0.015827
 20
0.027146
 30
0.197969
 70
   192
  0
VERTEX
  8
litGr
 10
0.270677
 20
-0.084432
 30
0.462314
 70
   192
  0
VERTEX
  8
litGr
 10
-0.221866
 20
0.200508
 30
0.507202
 70
   192
  0
VERTEX
  8
litGr
 10
0.066294
 20
0.086195
 30
0.765656
 70
   192
  0
VERTEX
  8
litGr
 10
-0.017483
 20
0.029881
 30
0.203860
 70
   192
  0
VERTEX
  8
litGr
 10
-0.039753
 20
-0.025878
 30
0.747601
 70
   192
  0
VERTEX
  8
litGr
 10
-0.190609
 20
0.514139
 30
0.219047
 70
   192
  0
VERTEX
  8
litGr
 10
-0.229412
 20
0.484713
 30
0.761727
 70
   192
  0
VERTEX
  8
litGr
 10
-0.000951
 20
0.003549
 30
0.204922
 70
   192
  0
VERTEX
  8
litGr
 10
0.236303
 20
-0.000693
 30
0.695450
 70
   192
  0
VERTEX
  8
litGr
 10
-0.241475
 20
0.486645
 30
0.337715
 70
   192
  0
VERTEX
  8
litGr
 10
-0.020999
 20
0.458806
 30
0.835197
 70
   192
  0
VERTEX
  8
litGr
 10
0.015827
 20
0.027146
 30
0.197969
 70
   192
  0
VERTEX
  8
litGr
 10
-0.010905
 20
-0.249772
 30
0.462314
 70
   192
  0
VERTEX
  8
litGr
 10
0.106615
 20
0.306985
 30
0.507202
 70
   192
  0
VERTEX
  8
litGr
 10
0.087649
 20
-0.002440
 30
0.765656
 70
   192
  0
VERTEX
  8
litGr
 10
0.008060
 20
0.059653
 30
0.203860
 70
   192
  0
VERTEX
  8
litGr
 10
-0.051860
 20
0.063466
 30
0.747601
 70
   192
  0
VERTEX
  8
litGr
 10
0.414400
 20
0.374878
 30
0.219047
 70
   192
  0
VERTEX
  8
litGr
 10
0.374360
 20
0.402597
 30
0.761727
 70
   192
  0
VERTEX
  8
litGr
 10
-0.011820
 20
0.035747
 30
0.204922
 70
   192
  0
VERTEX
  8
litGr
 10
0.077828
 20
-0.186256
 30
0.695450
 70
   192
  0
VERTEX
  8
litGr
 10
0.335369
 20
0.445759
 30
0.337715
 70
   192
  0
VERTEX
  8
litGr
 10
0.397370
 20
0.232356
 30
0.835196
 70
   192
  0
VERTEX
  8
litGr
 10
0.015827
 20
0.027146
 30
0.197969
 70
   192
  0
VERTEX
  8
litGr
 10
-0.248937
 20
-0.058284
 30
0.462314
 70
   192
  0
VERTEX
  8
litGr
 10
0.308708
 20
0.054947
 30
0.507202
 70
   192
  0
VERTEX
  8
litGr
 10
0.017194
 20
-0.050519
 30
0.765656
 70
   192
  0
VERTEX
  8
litGr
 10
0.042577
 20
0.047183
 30
0.203860
 70
   192
  0
VERTEX
  8
litGr
 10
0.022282
 20
0.103690
 30
0.747601
 70
   192
  0
VERTEX
  8
litGr
 10
0.493240
 20
-0.200570
 30
0.219047
 70
   192
  0
VERTEX
  8
litGr
 10
0.502780
 20
-0.152815
 30
0.761727
 70
   192
  0
VERTEX
  8
litGr
 10
0.012742
 20
0.055935
 30
0.204922
 70
   192
  0
VERTEX
  8
litGr
 10
-0.178063
 20
-0.081442
 30
0.695450
 70
   192
  0
VERTEX
  8
litGr
 10
0.495784
 20
-0.189616
 30
0.337715
 70
   192
  0
VERTEX
  8
litGr
 10
0.301893
 20
-0.298203
 30
0.835197
 70
   192
  0
VERTEX
  8
litGr
 10
0.015827
 20
0.027146
 30
0.197969
 70
   192
  0
VERTEX
  8
litGr
 10
-0.127183
 20
0.265781
 30
0.462314
 70
   192
  0
VERTEX
  8
litGr
 10
0.109046
 20
-0.251892
 30
0.507202
 70
   192
  0
VERTEX
  8
litGr
 10
-0.059524
 20
0.008277
 30
0.765656
 70
   192
  0
VERTEX
  8
litGr
 10
0.041386
 20
0.005611
 30
0.203860
 70
   192
  0
VERTEX
  8
litGr
 10
0.091852
 20
0.038142
 30
0.747601
 70
   192
  0
VERTEX
  8
litGr
 10
-0.098203
 20
-0.489357
 30
0.219047
 70
   192
  0
VERTEX
  8
litGr
 10
-0.049527
 20
-0.487867
 30
0.761727
 70
   192
  0
VERTEX
  8
litGr
 10
0.043176
 20
0.036652
 30
0.204922
 70
   192
  0
VERTEX
  8
litGr
 10
-0.164673
 20
0.156779
 30
0.695450
 70
   192
  0
VERTEX
  8
litGr
 10
0.022797
 20
-0.499442
 30
0.337715
 70
   192
  0
VERTEX
  8
litGr
 10
-0.157702
 20
-0.369810
 30
0.835196
 70
   192
  0
VERTEX
  8
litGr
 10
0.015827
 20
0.027146
 30
0.197969
 70
   192
  0
VERTEX
  8
litGr
 10
0.171408
 20
0.257782
 30
0.462314
 70
   192
  0
VERTEX
  8
litGr
 10
-0.197447
 20
-0.175503
 30
0.507202
 70
   192
  0
VERTEX
  8
litGr
 10
-0.033186
 20
0.087408
 30
0.765656
 70
   192
  0
VERTEX
  8
litGr
 10
0.007148
 20
-0.005129
 30
0.203860
 70
   192
  0
VERTEX
  8
litGr
 10
0.057993
 20
-0.037062
 30
0.747601
 70
   192
  0
VERTEX
  8
litGr
 10
-0.500347
 20
-0.088365
 30
0.219047
 70
   192
  0
VERTEX
  8
litGr
 10
-0.478377
 20
-0.131826
 30
0.761727
 70
   192
  0
VERTEX
  8
litGr
 10
0.036023
 20
0.006399
 30
0.204922
 70
   192
  0
VERTEX
  8
litGr
 10
-0.380722
 20
-0.081442
 30
0.837741
 70
   192
  0
VERTEX
  8
litGr
 10
0.377109
 20
-0.189615
 30
0.749785
 70
   192
  0
VERTEX
  8
litGr
 10
0.015458
 20
-0.298203
 30
1.142583
 70
   192
  0
VERTEX
  8
litGr
 10
-0.019072
 20
0.027146
 30
0.444943
 70
   192
  0
VERTEX
  8
litGr
 10
-0.248482
 20
0.265781
 30
0.639111
 70
   192
  0
VERTEX
  8
litGr
 10
-0.044791
 20
-0.251892
 30
0.766896
 70
   192
  0
VERTEX
  8
litGr
 10
-0.295864
 20
0.008277
 30
0.946274
 70
   192
  0
VERTEX
  8
litGr
 10
0.002591
 20
0.005611
 30
0.459733
 70
   192
  0
VERTEX
  8
litGr
 10
-0.148299
 20
0.038142
 30
0.984550
 70
   192
  0
VERTEX
  8
litGr
 10
-0.132952
 20
-0.489357
 30
0.423075
 70
   192
  0
VERTEX
  8
litGr
 10
-0.285122
 20
-0.487867
 30
0.946253
 70
   192
  0
VERTEX
  8
litGr
 10
0.003871
 20
0.036652
 30
0.461373
 70
   192
  0
VERTEX
  8
litGr
 10
0.230016
 20
0.391445
 30
0.764496
 70
   192
  0
VERTEX
  8
litGr
 10
-0.256650
 20
-0.194202
 30
0.882475
 70
   192
  0
VERTEX
  8
litGr
 10
-0.007562
 20
0.170098
 30
1.202028
 70
   192
  0
VERTEX
  8
litGr
 10
-0.019072
 20
0.027146
 30
0.444943
 70
   192
  0
VERTEX
  8
litGr
 10
0.355594
 20
0.095433
 30
0.492262
 70
   192
  0
VERTEX
  8
litGr
 10
-0.093667
 20
0.196693
 30
0.829478
 70
   192
  0
VERTEX
  8
litGr
 10
0.302265
 20
0.271956
 30
0.851285
 70
   192
  0
VERTEX
  8
litGr
 10
-0.040337
 20
0.020169
 30
0.470455
 70
   192
  0
VERTEX
  8
litGr
 10
0.269358
 20
0.130956
 30
0.907575
 70
   192
  0
VERTEX
  8
litGr
 10
-0.373784
 20
0.397203
 30
0.577079
 70
   192
  0
VERTEX
  8
litGr
 10
-0.088233
 20
0.525509
 30
1.023029
 70
   192
  0
VERTEX
  8
litGr
 10
-0.016193
 20
0.002650
 30
0.461626
 70
   192
  0
VERTEX
  8
litGr
 62
   254
 10
0.0
 20
0.0
 30
0.0
 70
   128
 71
   3
 72
   2
 73
   1
  0
VERTEX
  8
litGr
 62
   254
 10
0.0
 20
0.0
 30
0.0
 70
   128
 71
   2
 72
   4
 73
   1
  0
VERTEX
  8
litGr
 62
   254
 10
0.0
 20
0.0
 30
0.0
 70
   128
 71
   7
 72
   6
 73
   5
  0
VERTEX
  8
litGr
 62
   254
 10
0.0
 20
0.0
 30
0.0
 70
   128
 71
   6
 72
   8
 73
   5
  0
VERTEX
  8
litGr
 62
   254
 10
0.0
 20
0.0
 30
0.0
 70
   128
 71
   11
 72
   10
 73
   9
  0
VERTEX
  8
litGr
 62
   254
 10
0.0
 20
0.0
 30
0.0
 70
   128
 71
   10
 72
   12
 73
   9
  0
VERTEX
  8
litGr
 62
   254
 10
0.0
 20
0.0
 30
0.0
 70
   128
 71
   15
 72
   14
 73
   13
  0
VERTEX
  8
litGr
 62
   254
 10
0.0
 20
0.0
 30
0.0
 70
   128
 71
   14
 72
   16
 73
   13
  0
VERTEX
  8
litGr
 62
   254
 10
0.0
 20
0.0
 30
0.0
 70
   128
 71
   19
 72
   18
 73
   17
  0
VERTEX
  8
litGr
 62
   254
 10
0.0
 20
0.0
 30
0.0
 70
   128
 71
   18
 72
   20
 73
   17
  0
VERTEX
  8
litGr
 62
   254
 10
0.0
 20
0.0
 30
0.0
 70
   128
 71
   23
 72
   22
 73
   21
  0
VERTEX
  8
litGr
 62
   254
 10
0.0
 20
0.0
 30
0.0
 70
   128
 71
   22
 72
   24
 73
   21
  0
VERTEX
  8
litGr
 62
   254
 10
0.0
 20
0.0
 30
0.0
 70
   128
 71
   27
 72
   26
 73
   25
  0
VERTEX
  8
litGr
 62
   254
 10
0.0
 20
0.0
 30
0.0
 70
   128
 71
   26
 72
   28
 73
   25
  0
VERTEX
  8
litGr
 62
   254
 10
0.0
 20
0.0
 30
0.0
 70
   128
 71
   31
 72
   30
 73
   29
  0
VERTEX
  8
litGr
 62
   254
 10
0.0
 20
0.0
 30
0.0
 70
   128
 71
   30
 72
   32
 73
   29
  0
VERTEX
  8
litGr
 62
   254
 10
0.0
 20
0.0
 30
0.0
 70
   128
 71
   35
 72
   34
 73
   33
  0
VERTEX
  8
litGr
 62
   254
 10
0.0
 20
0.0
 30
0.0
 70
   128
 71
   34
 72
   36
 73
   33
  0
VERTEX
  8
litGr
 62
   254
 10
0.0
 20
0.0
 30
0.0
 70
   128
 71
   39
 72
   38
 73
   37
  0
VERTEX
  8
litGr
 62
   254
 10
0.0
 20
0.0
 30
0.0
 70
   128
 71
   38
 72
   40
 73
   37
  0
VERTEX
  8
litGr
 62
   254
 10
0.0
 20
0.0
 30
0.0
 70
   128
 71
   43
 72
   42
 73
   41
  0
VERTEX
  8
litGr
 62
   254
 10
0.0
 20
0.0
 30
0.0
 70
   128
 71
   42
 72
   44
 73
   41
  0
VERTEX
  8
litGr
 62
   254
 10
0.0
 20
0.0
 30
0.0
 70
   128
 71
   47
 72
   46
 73
   45
  0
VERTEX
  8
litGr
 62
   254
 10
0.0
 20
0.0
 30
0.0
 70
   128
 71
   46
 72
   48
 73
   45
  0
VERTEX
  8
litGr
 62
   254
 10
0.0
 20
0.0
 30
0.0
 70
   128
 71
   51
 72
   50
 73
   49
  0
VERTEX
  8
litGr
 62
   254
 10
0.0
 20
0.0
 30
0.0
 70
   128
 71
   50
 72
   52
 73
   49
  0
VERTEX
  8
litGr
 62
   254
 10
0.0
 20
0.0
 30
0.0
 70
   128
 71
   55
 72
   54
 73
   53
  0
VERTEX
  8
litGr
 62
   254
 10
0.0
 20
0.0
 30
0.0
 70
   128
 71
   54
 72
   56
 73
   53
  0
VERTEX
  8
litGr
 62
   254
 10
0.0
 20
0.0
 30
0.0
 70
   128
 71
   59
 72
   58
 73
   57
  0
VERTEX
  8
litGr
 62
   254
 10
0.0
 20
0.0
 30
0.0
 70
   128
 71
   58
 72
   60
 73
   57
  0
VERTEX
  8
litGr
 62
   254
 10
0.0
 20
0.0
 30
0.0
 70
   128
 71
   63
 72
   62
 73
   61
  0
VERTEX
  8
litGr
 62
   254
 10
0.0
 20
0.0
 30
0.0
 70
   128
 71
   62
 72
   64
 73
   61
  0
VERTEX
  8
litGr
 62
   254
 10
0.0
 20
0.0
 30
0.0
 70
   128
 71
   67
 72
   66
 73
   65
  0
VERTEX
  8
litGr
 62
   254
 10
0.0
 20
0.0
 30
0.0
 70
   128
 71
   66
 72
   68
 73
   65
  0
VERTEX
  8
litGr
 62
   254
 10
0.0
 20
0.0
 30
0.0
 70
   128
 71
   71
 72
   70
 73
   69
  0
VERTEX
  8
litGr
 62
   254
 10
0.0
 20
0.0
 30
0.0
 70
   128
 71
   70
 72
   72
 73
   69
  0
VERTEX
  8
litGr
 62
   254
 10
0.0
 20
0.0
 30
0.0
 70
   128
 71
   75
 72
   74
 73
   73
  0
VERTEX
  8
litGr
 62
   254
 10
0.0
 20
0.0
 30
0.0
 70
   128
 71
   74
 72
   76
 73
   73
  0
VERTEX
  8
litGr
 62
   254
 10
0.0
 20
0.0
 30
0.0
 70
   128
 71
   79
 72
   78
 73
   77
  0
VERTEX
  8
litGr
 62
   254
 10
0.0
 20
0.0
 30
0.0
 70
   128
 71
   78
 72
   80
 73
   77
  0
VERTEX
  8
litGr
 62
   254
 10
0.0
 20
0.0
 30
0.0
 70
   128
 71
   83
 72
   82
 73
   81
  0
VERTEX
  8
litGr
 62
   254
 10
0.0
 20
0.0
 30
0.0
 70
   128
 71
   82
 72
   84
 73
   81
  0
VERTEX
  8
litGr
 62
   254
 10
0.0
 20
0.0
 30
0.0
 70
   128
 71
   87
 72
   86
 73
   85
  0
VERTEX
  8
litGr
 62
   254
 10
0.0
 20
0.0
 30
0.0
 70
   128
 71
   86
 72
   88
 73
   85
  0
VERTEX
  8
litGr
 62
   254
 10
0.0
 20
0.0
 30
0.0
 70
   128
 71
   91
 72
   90
 73
   89
  0
VERTEX
  8
litGr
 62
   254
 10
0.0
 20
0.0
 30
0.0
 70
   128
 71
   90
 72
   92
 73
   89
  0
VERTEX
  8
litGr
 62
   254
 10
0.0
 20
0.0
 30
0.0
 70
   128
 71
   95
 72
   94
 73
   93
  0
VERTEX
  8
litGr
 62
   254
 10
0.0
 20
0.0
 30
0.0
 70
   128
 71
   94
 72
   96
 73
   93
  0
VERTEX
  8
litGr
 62
   254
 10
0.0
 20
0.0
 30
0.0
 70
   128
 71
   99
 72
   98
 73
   97
  0
VERTEX
  8
litGr
 62
   254
 10
0.0
 20
0.0
 30
0.0
 70
   128
 71
   98
 72
   100
 73
   97
  0
VERTEX
  8
litGr
 62
   254
 10
0.0
 20
0.0
 30
0.0
 70
   128
 71
   103
 72
   102
 73
   101
  0
VERTEX
  8
litGr
 62
   254
 10
0.0
 20
0.0
 30
0.0
 70
   128
 71
   102
 72
   104
 73
   101
  0
VERTEX
  8
litGr
 62
   254
 10
0.0
 20
0.0
 30
0.0
 70
   128
 71
   107
 72
   106
 73
   105
  0
VERTEX
  8
litGr
 62
   254
 10
0.0
 20
0.0
 30
0.0
 70
   128
 71
   106
 72
   108
 73
   105
  0
VERTEX
  8
litGr
 62
   254
 10
0.0
 20
0.0
 30
0.0
 70
   128
 71
   111
 72
   110
 73
   109
  0
VERTEX
  8
litGr
 62
   254
 10
0.0
 20
0.0
 30
0.0
 70
   128
 71
   110
 72
   112
 73
   109
  0
VERTEX
  8
litGr
 62
   254
 10
0.0
 20
0.0
 30
0.0
 70
   128
 71
   115
 72
   114
 73
   113
  0
VERTEX
  8
litGr
 62
   254
 10
0.0
 20
0.0
 30
0.0
 70
   128
 71
   114
 72
   116
 73
   113
  0
VERTEX
  8
litGr
 62
   254
 10
0.0
 20
0.0
 30
0.0
 70
   128
 71
   119
 72
   118
 73
   117
  0
VERTEX
  8
litGr
 62
   254
 10
0.0
 20
0.0
 30
0.0
 70
   128
 71
   118
 72
   120
 73
   117
  0
VERTEX
  8
litGr
 62
   254
 10
0.0
 20
0.0
 30
0.0
 70
   128
 71
   123
 72
   122
 73
   121
  0
VERTEX
  8
litGr
 62
   254
 10
0.0
 20
0.0
 30
0.0
 70
   128
 71
   122
 72
   124
 73
   121
  0
VERTEX
  8
litGr
 62
   254
 10
0.0
 20
0.0
 30
0.0
 70
   128
 71
   127
 72
   126
 73
   125
  0
VERTEX
  8
litGr
 62
   254
 10
0.0
 20
0.0
 30
0.0
 70
   128
 71
   126
 72
   128
 73
   125
  0
VERTEX
  8
litGr
 62
   254
 10
0.0
 20
0.0
 30
0.0
 70
   128
 71
   131
 72
   130
 73
   129
  0
VERTEX
  8
litGr
 62
   254
 10
0.0
 20
0.0
 30
0.0
 70
   128
 71
   130
 72
   132
 73
   129
  0
VERTEX
  8
litGr
 62
   254
 10
0.0
 20
0.0
 30
0.0
 70
   128
 71
   135
 72
   134
 73
   133
  0
VERTEX
  8
litGr
 62
   254
 10
0.0
 20
0.0
 30
0.0
 70
   128
 71
   134
 72
   136
 73
   133
  0
VERTEX
  8
litGr
 62
   254
 10
0.0
 20
0.0
 30
0.0
 70
   128
 71
   139
 72
   138
 73
   137
  0
VERTEX
  8
litGr
 62
   254
 10
0.0
 20
0.0
 30
0.0
 70
   128
 71
   138
 72
   140
 73
   137
  0
VERTEX
  8
litGr
 62
   254
 10
0.0
 20
0.0
 30
0.0
 70
   128
 71
   143
 72
   142
 73
   141
  0
VERTEX
  8
litGr
 62
   254
 10
0.0
 20
0.0
 30
0.0
 70
   128
 71
   142
 72
   144
 73
   141
  0
SEQEND
  0
ENDSEC
  0
EOF
